<svg xmlns="http://www.w3.org/2000/svg" width="42" height="43" viewBox="0 0 42 43">
    <g fill="none" fill-rule="evenodd" transform="translate(.95 .369)">
        <ellipse cx="20" cy="20.059" fill="#FFF" rx="20" ry="20.059"/>
        <path fill="#C62829" fill-rule="nonzero" d="M25.609 22.576c-1.404 0-2.642.679-3.443 1.714l-8.456-3.262c.008-.111.033-.218.033-.331 0-.211-.033-.413-.062-.616l8.666-4.012c.801.91 1.96 1.496 3.262 1.496 2.41 0 4.372-1.967 4.372-4.385 0-2.417-1.962-4.384-4.372-4.384s-4.372 1.967-4.372 4.384c0 .21.034.413.062.615l-8.665 4.012c-.802-.91-1.96-1.495-3.262-1.495-2.41 0-4.372 1.967-4.372 4.384 0 2.418 1.961 4.385 4.372 4.385 1.404 0 2.642-.68 3.442-1.715l8.457 3.262c-.009.112-.034.219-.034.332 0 2.417 1.962 4.385 4.372 4.385s4.372-1.968 4.372-4.385-1.962-4.384-4.372-4.384z"/>
    </g>
</svg>
